<mxfile host="app.diagrams.net" modified="2023-08-25T08:12:20.762Z" agent="Mozilla/5.0 (Windows NT 10.0; Win64; x64) AppleWebKit/537.36 (KHTML, like Gecko) Chrome/116.0.0.0 Safari/537.36 Edg/116.0.1938.54" etag="-4dTKPIFePifeQENwBat" version="21.6.9" type="device">
  <diagram name="Page-1" id="21ORsQWHsIKUVIGTKt5p">
    <mxGraphModel dx="872" dy="481" grid="1" gridSize="10" guides="1" tooltips="1" connect="1" arrows="1" fold="1" page="1" pageScale="1" pageWidth="827" pageHeight="1169" math="0" shadow="0">
      <root>
        <mxCell id="0" />
        <mxCell id="1" parent="0" />
        <mxCell id="0hRfQC4m2FfKHqGu2-95-2" value="Kabelska televizija" style="ellipse;whiteSpace=wrap;html=1;aspect=fixed;" vertex="1" parent="1">
          <mxGeometry x="340" y="230" width="100" height="100" as="geometry" />
        </mxCell>
        <mxCell id="0hRfQC4m2FfKHqGu2-95-5" value="" style="edgeStyle=orthogonalEdgeStyle;rounded=0;orthogonalLoop=1;jettySize=auto;html=1;" edge="1" parent="1" source="0hRfQC4m2FfKHqGu2-95-3" target="0hRfQC4m2FfKHqGu2-95-2">
          <mxGeometry relative="1" as="geometry" />
        </mxCell>
        <mxCell id="0hRfQC4m2FfKHqGu2-95-3" value="Korisnik" style="rounded=0;whiteSpace=wrap;html=1;" vertex="1" parent="1">
          <mxGeometry x="330" y="60" width="120" height="60" as="geometry" />
        </mxCell>
        <mxCell id="0hRfQC4m2FfKHqGu2-95-10" value="Korisnički podaci,&lt;br&gt;pregled sadržaja,&lt;br&gt;&amp;nbsp;recenzija sadržaja" style="text;html=1;align=center;verticalAlign=middle;resizable=0;points=[];autosize=1;strokeColor=none;fillColor=none;" vertex="1" parent="1">
          <mxGeometry x="270" y="120" width="120" height="60" as="geometry" />
        </mxCell>
        <mxCell id="0hRfQC4m2FfKHqGu2-95-13" value="" style="edgeStyle=orthogonalEdgeStyle;rounded=0;orthogonalLoop=1;jettySize=auto;html=1;entryX=1;entryY=0.5;entryDx=0;entryDy=0;" edge="1" parent="1" target="0hRfQC4m2FfKHqGu2-95-3">
          <mxGeometry relative="1" as="geometry">
            <mxPoint x="430" y="250" as="sourcePoint" />
            <mxPoint x="444" y="70" as="targetPoint" />
            <Array as="points">
              <mxPoint x="474" y="250" />
              <mxPoint x="474" y="90" />
            </Array>
          </mxGeometry>
        </mxCell>
        <mxCell id="0hRfQC4m2FfKHqGu2-95-14" value="Podaci o korisniku,&lt;br&gt;sadržaju i &lt;br&gt;recenzijama" style="text;html=1;align=center;verticalAlign=middle;resizable=0;points=[];autosize=1;strokeColor=none;fillColor=none;" vertex="1" parent="1">
          <mxGeometry x="480" y="120" width="120" height="60" as="geometry" />
        </mxCell>
        <mxCell id="0hRfQC4m2FfKHqGu2-95-15" value="Administrator" style="rounded=0;whiteSpace=wrap;html=1;" vertex="1" parent="1">
          <mxGeometry x="120" y="250" width="120" height="60" as="geometry" />
        </mxCell>
        <mxCell id="0hRfQC4m2FfKHqGu2-95-16" value="" style="edgeStyle=orthogonalEdgeStyle;rounded=0;orthogonalLoop=1;jettySize=auto;html=1;" edge="1" parent="1">
          <mxGeometry relative="1" as="geometry">
            <mxPoint x="240" y="280" as="sourcePoint" />
            <mxPoint x="340" y="279.5" as="targetPoint" />
          </mxGeometry>
        </mxCell>
        <mxCell id="0hRfQC4m2FfKHqGu2-95-17" value="Upravljanje korisnicima &lt;br&gt;i sadržajem,&lt;br&gt;dodavanje novog&lt;br&gt;&amp;nbsp;sadržaja" style="text;html=1;align=center;verticalAlign=middle;resizable=0;points=[];autosize=1;strokeColor=none;fillColor=none;" vertex="1" parent="1">
          <mxGeometry x="220" y="205" width="150" height="70" as="geometry" />
        </mxCell>
        <mxCell id="0hRfQC4m2FfKHqGu2-95-18" value="Održavanje &lt;br&gt;platforme" style="rounded=0;whiteSpace=wrap;html=1;" vertex="1" parent="1">
          <mxGeometry x="330" y="430" width="120" height="60" as="geometry" />
        </mxCell>
        <mxCell id="0hRfQC4m2FfKHqGu2-95-22" value="" style="edgeStyle=orthogonalEdgeStyle;rounded=0;orthogonalLoop=1;jettySize=auto;html=1;" edge="1" parent="1">
          <mxGeometry relative="1" as="geometry">
            <mxPoint x="400" y="330" as="sourcePoint" />
            <mxPoint x="400" y="430" as="targetPoint" />
          </mxGeometry>
        </mxCell>
        <mxCell id="0hRfQC4m2FfKHqGu2-95-23" value="" style="edgeStyle=orthogonalEdgeStyle;rounded=0;orthogonalLoop=1;jettySize=auto;html=1;" edge="1" parent="1">
          <mxGeometry relative="1" as="geometry">
            <mxPoint x="379" y="430" as="sourcePoint" />
            <mxPoint x="379" y="330" as="targetPoint" />
          </mxGeometry>
        </mxCell>
        <mxCell id="0hRfQC4m2FfKHqGu2-95-24" value="&lt;div style=&quot;text-align: center;&quot;&gt;&lt;span style=&quot;background-color: initial;&quot;&gt;Ažurirana&amp;nbsp;&lt;/span&gt;&lt;/div&gt;&lt;div style=&quot;text-align: center;&quot;&gt;&lt;span style=&quot;background-color: initial;&quot;&gt;aplikacija&lt;/span&gt;&lt;/div&gt;" style="text;whiteSpace=wrap;html=1;" vertex="1" parent="1">
          <mxGeometry x="310" y="360" width="60" height="40" as="geometry" />
        </mxCell>
        <mxCell id="0hRfQC4m2FfKHqGu2-95-25" value="&lt;div style=&quot;text-align: center;&quot;&gt;Zahtjev za održavanje&lt;/div&gt;" style="text;whiteSpace=wrap;html=1;" vertex="1" parent="1">
          <mxGeometry x="409" y="360" width="60" height="40" as="geometry" />
        </mxCell>
        <mxCell id="0hRfQC4m2FfKHqGu2-95-27" value="Naplatni sustav" style="rounded=0;whiteSpace=wrap;html=1;" vertex="1" parent="1">
          <mxGeometry x="590" y="250" width="120" height="60" as="geometry" />
        </mxCell>
        <mxCell id="0hRfQC4m2FfKHqGu2-95-28" value="" style="edgeStyle=orthogonalEdgeStyle;rounded=0;orthogonalLoop=1;jettySize=auto;html=1;exitX=1;exitY=0.5;exitDx=0;exitDy=0;" edge="1" parent="1">
          <mxGeometry relative="1" as="geometry">
            <mxPoint x="440" y="275" as="sourcePoint" />
            <mxPoint x="590" y="275" as="targetPoint" />
          </mxGeometry>
        </mxCell>
        <mxCell id="0hRfQC4m2FfKHqGu2-95-29" value="&lt;div style=&quot;text-align: center;&quot;&gt;Podaci o plaćanju&lt;/div&gt;" style="text;whiteSpace=wrap;html=1;" vertex="1" parent="1">
          <mxGeometry x="480" y="250" width="100" height="20" as="geometry" />
        </mxCell>
        <mxCell id="0hRfQC4m2FfKHqGu2-95-32" value="" style="edgeStyle=orthogonalEdgeStyle;rounded=0;orthogonalLoop=1;jettySize=auto;html=1;" edge="1" parent="1">
          <mxGeometry relative="1" as="geometry">
            <mxPoint x="590" y="300" as="sourcePoint" />
            <mxPoint x="435" y="300" as="targetPoint" />
          </mxGeometry>
        </mxCell>
        <mxCell id="0hRfQC4m2FfKHqGu2-95-33" value="&lt;div style=&quot;text-align: center;&quot;&gt;Potvrda plaćanja&lt;/div&gt;" style="text;whiteSpace=wrap;html=1;" vertex="1" parent="1">
          <mxGeometry x="480" y="280" width="100" height="20" as="geometry" />
        </mxCell>
      </root>
    </mxGraphModel>
  </diagram>
</mxfile>
